Coordinates
version=1
nRows=15
nColumns=34
inDegrees=yes

Units are S.I. units (second, meters, Newtons, ...)
If the header above contains a line with 'inDegrees', this indicates whether rotational values are in degrees (yes) or radians (no).

endheader
time	pelvis_tilt	pelvis_list	pelvis_rotation	pelvis_tx	pelvis_ty	pelvis_tz	hip_flexion_r	hip_adduction_r	hip_rotation_r	knee_angle_r	ankle_angle_r	subtalar_angle_r	mtp_angle_r	hip_flexion_l	hip_adduction_l	hip_rotation_l	knee_angle_l	ankle_angle_l	subtalar_angle_l	mtp_angle_l	lumbar_extension	lumbar_bending	lumbar_rotation	arm_flex_r	arm_add_r	arm_rot_r	elbow_flex_r	pro_sup_r	arm_flex_l	arm_add_l	arm_rot_l	elbow_flex_l	pro_sup_l
      7.45000000	      0.21968709	      0.71707627	    -38.38441732	     -2.92449460	      0.84316443	      0.14657168	     11.16736335	    -24.70671922	      9.11750451	     59.72940111	     20.52133423	    -16.80717777	      0.00000000	     41.68831777	    -25.58627031	      9.98761033	     31.94991550	     -9.72973997	    -32.15795369	      0.00000000	     21.56133335	     12.51350208	    -25.62288595	   -329.53556852	    -19.67378669	      6.91137141	    150.00035077	     95.68601043	   -370.14818631	    -47.62998412	     17.08196651	     51.01777362	     88.87725795
      7.46666670	      0.63531970	      0.21744484	    -36.64379784	     -2.87899396	      0.85769468	      0.14092077	      3.95803656	    -25.94324980	      7.11862766	     53.24026028	     12.61035398	    -18.97154505	      0.00000000	     39.59588871	    -24.05171546	      8.77626207	     32.57036201	     -9.95891562	    -30.82072578	      0.00000000	     20.16120526	      9.94192369	    -29.98398452	   -326.74100654	    -16.15649603	      3.60706687	    150.00035077	     95.63099525	   -392.89391937	    -37.62467958	    -12.23035465	     56.39690809	     90.88608096
      7.48333330	      2.33550562	     -1.57269541	    -34.07903357	     -2.84009890	      0.87403903	      0.13418932	     -6.19409987	    -25.75100117	      4.76180113	     44.74049697	      3.19826560	    -22.14659366	      0.00000000	     35.82028746	    -22.86867606	      6.07022999	     33.28379798	    -10.97400725	    -27.97076453	      0.00000000	     18.13722380	      6.49614934	    -28.67947077	   -328.91338488	    -16.08942215	     -7.44752811	    150.00035077	     95.15091803	   -398.04971911	    -31.29780100	    -19.15578039	     48.96601233	     91.17060179
      7.50000000	      3.84802245	     -2.15734496	    -30.85765585	     -2.80080502	      0.88253557	      0.12697420	    -13.85913578	    -25.24560791	      2.51189132	     38.52635566	     -3.43935154	    -22.71129476	      0.00000000	     34.03745072	    -21.10693516	      3.68791376	     33.81572100	    -11.32044018	    -23.37531644	      0.00000000	     16.11918043	      0.33202791	    -24.12868379	   -333.13270805	    -15.46329978	    -41.02931228	    150.00035077	     91.66376189	   -401.61024438	    -26.31776819	    -34.87620005	     48.71533404	     89.19924927
      7.51666670	      5.46196964	     -2.55977586	    -27.63589657	     -2.76568149	      0.88394259	      0.11582343	    -20.39467126	    -24.69367082	     -0.64745699	     34.29698563	    -12.08341496	    -25.65159316	      0.00000000	     32.55456200	    -18.70851169	      2.52763420	     35.03897732	    -10.66607564	    -21.25493464	      0.00000000	      8.15227890	     -6.40530684	     -3.99527415	   -343.70118950	    -23.88394743	   -121.68593539	    150.00035077	     47.22617499	   -390.10198329	    -36.37627285	    -29.33530208	     54.26293227	     81.00813252
      7.53333330	      5.65103640	     -1.45181812	    -23.84929866	     -2.73220165	      0.88437481	      0.10449720	    -24.21646625	    -24.27394126	     -4.95666377	     33.22155506	    -14.80627249	    -23.21206807	      0.00000000	     33.68971632	    -15.13358293	      2.75576216	     37.84794322	     -8.83067465	    -20.47710984	      0.00000000	      7.16420787	    -12.38622614	     -1.06987881	   -338.86948661	    -29.59310374	   -121.25473864	    150.00035077	     46.75239145	   -389.21006699	    -38.85083501	    -32.80632167	     51.57889441	     80.02759321
      7.55000000	      5.71710876	     -1.32724622	    -20.41928138	     -2.71299224	      0.89286422	      0.09808687	    -26.95528408	    -22.03092459	     -7.51135774	     34.04389281	    -19.58538857	    -19.34551502	      0.00000000	     34.27648398	    -13.03163476	      3.05160795	     39.52692309	     -6.73016836	    -19.28192009	      0.00000000	      6.99389369	    -17.09579131	     -1.82950417	   -325.79317788	    -31.17406207	    -98.56944770	    150.00035077	     48.75377740	   -390.72463759	    -39.96164149	    -37.94254047	     51.20600920	     74.16193335
      7.56666670	      4.61321579	     -1.15632019	    -16.50588855	     -2.68911000	      0.89483218	      0.09133456	    -27.52868737	    -19.02642763	    -10.21154360	     35.40155079	    -20.37465480	    -10.75644508	      0.00000000	     34.92998911	    -10.85097119	      3.88585455	     39.04405523	     -5.12613231	    -17.15598747	      0.00000000	      7.19642003	    -19.92608898	     -1.39213900	   -312.33186577	    -33.87297178	    -72.35424198	    150.00035077	     56.31988384	   -386.58575202	    -41.64902223	    -38.65628911	     48.52403448	     72.77371461
      7.58333330	      2.47796183	     -1.75859837	    -11.74582955	     -2.66605999	      0.89876362	      0.08472218	    -26.35711773	    -14.77439359	    -13.68365169	     36.32487551	    -15.23279721	      0.35079511	      0.00000000	     36.09415982	     -9.31800183	      6.21665573	     37.69238618	     -3.23124996	    -14.84692677	      0.00000000	      6.94904115	    -22.48421649	      1.22137257	   -301.96222182	    -36.46558891	    -56.93560398	    140.25144535	     62.11886616	   -376.03076869	    -43.30956948	    -37.35054071	     47.06081039	     73.18124064
      7.60000000	     -0.48085916	     -3.22321928	     -7.08065073	     -2.65251620	      0.91602380	      0.07905434	    -23.18414224	     -9.87984264	    -16.42523020	     37.42455203	    -10.53842325	     10.82324548	      0.00000000	     37.80033349	     -8.79531627	      8.67018381	     35.37895587	     -2.72103480	    -11.36697916	      0.00000000	      6.98228407	    -25.21164891	      5.67471106	   -293.74176211	    -40.63395114	    -52.20804254	    123.78913071	     85.84191148	   -361.56904516	    -44.56401346	    -28.23072917	     46.17563993	     78.23991267
      7.61666670	     -1.75825756	     -6.71548397	     -2.69745204	     -2.64308012	      0.92988453	      0.07335442	    -19.21235449	     -4.91496901	    -18.95367254	     39.61840333	     -0.88671189	     16.35107783	      0.00000000	     37.33751994	    -10.12861865	     12.38454905	     31.57305358	     -3.08696875	     -7.44261203	      0.00000000	      3.52841152	    -26.12705500	      5.85599548	   -281.22302715	    -42.16206954	    -45.57023874	    100.68991064	     87.94331080	   -353.17019156	    -42.46513957	    -26.30174375	     49.69669218	     78.99060125
      7.63333330	     -3.40213927	    -11.48684054	      1.30266428	     -2.63824773	      0.93399939	      0.06980010	    -13.30625325	     -0.04517468	    -20.74543992	     42.14862589	      5.41878867	     18.76438125	      0.00000000	     38.60036856	    -12.71063247	     17.24708193	     27.62250201	     -4.04248326	     -3.98801980	      0.00000000	      0.92560465	    -24.83766555	      3.99527686	   -267.27873052	    -42.46603947	    -35.97874467	     71.40478459	     93.14430389	   -346.53547020	    -40.43145756	    -23.13670513	     50.47102801	     80.65209282
      7.65000000	     -5.44108048	    -15.18323934	      3.66291529	     -2.63224326	      0.94408212	      0.06806520	     -7.82717996	      3.03304746	    -22.36898302	     41.98473245	      1.74093754	     19.21304623	      0.00000000	     40.91302653	    -14.92101888	     20.32183569	     24.75083850	     -6.03738992	     -0.67035902	      0.00000000	      0.46370999	    -24.08441837	      3.21089335	   -254.73277692	    -43.26965377	    -18.69251650	     39.19213614	    119.74817918	   -341.64992938	    -37.15623142	    -21.74748116	     51.33306607	     87.49980569
      7.66666670	     -7.13468678	    -17.70997355	      5.02875843	     -2.61337665	      0.95590745	      0.06856029	     -3.97559899	      4.16045159	    -24.10754418	     40.24783209	     -4.58867399	     15.91521621	      0.00000000	     41.33993433	    -16.85260244	     21.99051380	     21.35665231	     -7.65910396	      1.25103381	      0.00000000	      1.18642038	    -23.91017088	     -2.36448402	   -251.66263837	    -34.29413217	      1.20525588	     26.62918191	    119.74817918	   -349.63673246	    -37.18578347	    -28.66185119	     59.17019801	     88.89020802
      7.68333330	     -9.54480409	    -19.65766626	      4.32096861	     -2.60972291	      0.95506669	      0.07093664	     -0.79774849	      4.40673405	    -24.55911694	     37.66341822	     -5.46938525	     11.85225701	      0.00000000	     43.10091411	    -18.85832861	     22.35225337	     19.59104053	     -9.53629581	      1.13530829	      0.00000000	      3.33912265	    -24.12374388	     -1.92456594	   -254.67504429	    -25.93534608	      6.06013864	     25.28551799	    119.74817918	   -350.72523196	    -34.48919842	    -27.71621916	     64.64747408	     89.39259394
